<?xml version="1.0" standalone="no"?>
<!DOCTYPE svg PUBLIC "-//W3C//DTD SVG 20010904//EN"
 "http://www.w3.org/TR/2001/REC-SVG-20010904/DTD/svg10.dtd">
<svg version="1.0" xmlns="http://www.w3.org/2000/svg"
 width="260.000000pt" height="260.000000pt" viewBox="0 0 260.000000 260.000000"
 preserveAspectRatio="xMidYMid meet">
<metadata>
Created by potrace 1.14, written by Peter Selinger 2001-2017
</metadata>
<g transform="translate(0.000000,260.000000) scale(0.100000,-0.100000)"
fill="#000000" stroke="none">
<path d="M0 1300 l0 -1300 1300 0 1300 0 0 1300 0 1300 -1300 0 -1300 0 0
-1300z m1420 353 c25 -11 61 -35 79 -54 34 -33 78 -116 67 -126 -4 -4 -118
-32 -137 -33 -4 0 -12 14 -19 31 -42 101 -207 118 -291 29 -46 -48 -62 -107
-57 -207 4 -99 33 -163 91 -201 58 -38 150 -38 225 1 l52 27 0 50 0 50 -85 0
-85 0 0 60 0 60 160 0 160 0 0 -147 0 -148 -33 -22 c-125 -84 -316 -107 -438
-51 -78 36 -124 80 -161 156 -32 64 -33 72 -33 182 0 105 2 120 28 175 44 95
113 156 207 182 66 19 214 11 270 -14z m-1060 -240 c0 -278 2 -289 53 -327 22
-16 43 -21 93 -21 56 0 67 4 90 27 37 37 43 82 44 346 l0 232 70 0 70 0 0
-263 c0 -298 -7 -341 -62 -394 -63 -59 -91 -68 -218 -68 -100 0 -121 3 -157
23 -54 28 -80 56 -107 112 -19 42 -21 65 -24 318 l-4 272 76 0 76 0 0 -257z
m1587 185 c11 -40 40 -148 64 -240 24 -92 46 -162 50 -155 3 7 32 114 64 240
l59 227 108 0 108 0 0 -360 0 -360 -65 0 -65 0 -2 273 -3 272 -69 -272 -68
-273 -72 0 -71 0 -67 263 -66 262 -1 -262 -1 -263 -70 0 -70 0 0 360 0 360
109 0 109 0 19 -72z"/>
</g>
</svg>
