<?xml version="1.0" encoding="UTF-8"?>
<svg xmlns="http://www.w3.org/2000/svg" xmlns:xlink="http://www.w3.org/1999/xlink" width="262px" height="94px" viewBox="0 0 261 94" version="1.1">
<g id="surface1">
<path style=" stroke:none;fill-rule:evenodd;fill:rgb(100%,100%,100%);fill-opacity:1;" d="M 2.976562 70.863281 C 1.058594 78.179688 0.0976562 85.882812 0 93.777344 L 94.625 93.777344 Z M 94.625 93.777344 Z M 94.625 93.777344 Z M 94.625 93.777344 L 94.71875 0.0976562 C 94.433594 0.0976562 94.242188 0.0976562 93.953125 0.0976562 C 86.363281 0.0976562 78.964844 1.058594 71.855469 2.792969 Z M 94.625 93.777344 L 54.757812 8.761719 C 47.648438 12.035156 41.117188 16.078125 35.160156 20.894531 Z M 21.519531 34.371094 C 16.621094 40.34375 12.390625 46.890625 9.125 53.917969 L 94.625 93.777344 Z M 94.625 93.777344 Z M 94.625 93.777344 Z M 261.105469 0.0976562 L 199.335938 0.0976562 L 199.335938 21.183594 L 217.398438 21.183594 L 217.398438 93.875 L 243.046875 93.875 L 243.046875 21.183594 L 261.105469 21.183594 Z M 193.1875 93.777344 L 167.539062 93.777344 L 167.539062 0.0976562 L 193.1875 0.0976562 Z M 163.214844 93.777344 L 134.683594 93.777344 L 100.773438 57.289062 L 100.773438 36.394531 L 133.628906 0 L 163.023438 0 L 125.171875 47.179688 Z M 163.214844 93.777344 "/>
</g>
</svg>
