<?xml version="1.0" encoding="UTF-8"?>
<svg xmlns="http://www.w3.org/2000/svg" xmlns:xlink="http://www.w3.org/1999/xlink" width="262px" height="131px" viewBox="0 0 262 131" version="1.1">
<g id="surface1">
<path style=" stroke:none;fill-rule:nonzero;fill:rgb(100%,100%,100%);fill-opacity:1;" d="M 251.898438 124.316406 C 252.183594 124.367188 252.464844 124.433594 252.96875 124.433594 C 255.039062 124.433594 255.65625 122.546875 256.242188 120.910156 L 259.378906 112.207031 L 257.792969 112.207031 L 255.457031 119.253906 L 255.421875 119.253906 L 253.132812 112.207031 L 251.414062 112.207031 L 254.304688 120.15625 C 254.402344 120.441406 254.605469 120.878906 254.605469 121.0625 C 254.605469 121.230469 254.136719 123.164062 252.734375 123.164062 C 252.464844 123.164062 252.199219 123.097656 252 123.03125 Z M 249.960938 112.207031 L 248.507812 112.207031 L 248.507812 113.476562 L 248.476562 113.476562 C 248.007812 112.558594 247.171875 112.007812 245.667969 112.007812 C 243.097656 112.007812 241.863281 114.34375 241.863281 116.53125 C 241.863281 118.738281 243.066406 120.722656 245.503906 120.722656 C 246.589844 120.722656 247.691406 120.289062 248.359375 119.40625 L 248.390625 119.40625 L 248.390625 120.242188 C 248.390625 122.046875 247.40625 123.164062 245.753906 123.164062 C 244.601562 123.164062 243.882812 122.949219 242.679688 122.398438 L 242.511719 123.851562 C 243.882812 124.316406 244.667969 124.433594 245.570312 124.433594 C 248.625 124.433594 249.960938 122.949219 249.960938 120.355469 Z M 245.902344 119.457031 C 244.433594 119.457031 243.53125 118.054688 243.53125 116.449219 C 243.53125 114.996094 244.316406 113.277344 245.902344 113.277344 C 247.574219 113.277344 248.390625 114.796875 248.390625 116.566406 C 248.390625 118.152344 247.375 119.457031 245.902344 119.457031 Z M 231.660156 116.464844 C 231.660156 118.90625 233.429688 120.929688 236 120.929688 C 238.554688 120.929688 240.324219 118.90625 240.324219 116.464844 C 240.324219 113.878906 238.589844 112.007812 236 112.007812 C 233.394531 112.007812 231.660156 113.878906 231.660156 116.464844 Z M 233.328125 116.464844 C 233.328125 114.847656 234.3125 113.277344 236 113.277344 C 237.671875 113.277344 238.65625 114.847656 238.65625 116.464844 C 238.65625 117.984375 237.835938 119.65625 236 119.65625 C 234.148438 119.65625 233.328125 117.984375 233.328125 116.464844 Z M 227.785156 120.722656 L 229.355469 120.722656 L 229.355469 108.199219 L 227.785156 108.199219 Z M 216.8125 116.464844 C 216.8125 118.90625 218.582031 120.929688 221.15625 120.929688 C 223.710938 120.929688 225.480469 118.90625 225.480469 116.464844 C 225.480469 113.878906 223.742188 112.007812 221.15625 112.007812 C 218.550781 112.007812 216.8125 113.878906 216.8125 116.464844 Z M 218.484375 116.464844 C 218.484375 114.847656 219.46875 113.277344 221.15625 113.277344 C 222.824219 113.277344 223.808594 114.847656 223.808594 116.464844 C 223.808594 117.984375 222.992188 119.65625 221.15625 119.65625 C 219.300781 119.65625 218.484375 117.984375 218.484375 116.464844 Z M 207.175781 120.722656 L 208.746094 120.722656 L 208.746094 116.785156 C 208.746094 114.714844 209.546875 113.277344 211.335938 113.277344 C 212.703125 113.359375 213.136719 114.328125 213.136719 116.316406 L 213.136719 120.722656 L 214.707031 120.722656 L 214.707031 115.664062 C 214.707031 113.378906 213.722656 112.007812 211.519531 112.007812 C 210.332031 112.007812 209.199219 112.59375 208.730469 113.558594 L 208.695312 113.558594 L 208.695312 112.207031 L 207.175781 112.207031 Z M 196.972656 120.722656 L 198.542969 120.722656 L 198.542969 116.785156 C 198.542969 114.714844 199.34375 113.277344 201.132812 113.277344 C 202.5 113.359375 202.933594 114.328125 202.933594 116.316406 L 202.933594 120.722656 L 204.503906 120.722656 L 204.503906 115.664062 C 204.503906 113.378906 203.519531 112.007812 201.316406 112.007812 C 200.128906 112.007812 199.144531 112.523438 198.578125 113.425781 L 198.542969 113.425781 L 198.542969 108.199219 L 196.972656 108.199219 Z M 195.101562 112.339844 C 194.652344 112.15625 193.835938 112.007812 193.199219 112.007812 C 190.59375 112.007812 188.859375 113.878906 188.859375 116.464844 C 188.859375 118.90625 190.628906 120.929688 193.199219 120.929688 C 193.765625 120.929688 194.519531 120.878906 195.171875 120.574219 L 195.054688 119.171875 C 194.570312 119.488281 193.902344 119.65625 193.367188 119.65625 C 191.347656 119.65625 190.527344 117.984375 190.527344 116.464844 C 190.527344 114.847656 191.511719 113.277344 193.265625 113.277344 C 193.765625 113.277344 194.367188 113.394531 194.96875 113.644531 Z M 186.804688 118.804688 C 186.417969 119.121094 185.21875 119.65625 184.183594 119.65625 C 182.695312 119.65625 181.375 118.503906 181.375 116.816406 L 187.453125 116.816406 C 187.453125 114.078125 186.535156 112.007812 183.699219 112.007812 C 181.292969 112.007812 179.707031 113.792969 179.707031 116.316406 C 179.707031 119.089844 181.09375 120.929688 184.113281 120.929688 C 185.515625 120.929688 186.203125 120.589844 186.804688 120.375 Z M 181.375 115.648438 C 181.492188 114.546875 182.128906 113.277344 183.664062 113.277344 C 185.015625 113.277344 185.785156 114.34375 185.785156 115.648438 Z M 174.695312 120.722656 L 176.367188 120.722656 L 176.367188 110.539062 L 179.988281 110.539062 L 179.988281 109.066406 L 171.070312 109.066406 L 171.070312 110.539062 L 174.695312 110.539062 Z M 162.105469 120.722656 L 163.675781 120.722656 L 163.675781 113.476562 L 165.929688 113.476562 L 165.929688 112.207031 L 163.675781 112.207031 L 163.675781 111.289062 C 163.675781 110.136719 163.839844 109.269531 165.191406 109.269531 C 165.460938 109.269531 165.761719 109.300781 165.945312 109.367188 L 166.011719 108.101562 C 165.695312 108.050781 165.359375 108 164.960938 108 C 162.636719 108 162.105469 109.351562 162.105469 111.421875 L 162.105469 112.207031 L 160.101562 112.207031 L 160.101562 113.476562 L 162.105469 113.476562 Z M 150.3125 116.464844 C 150.3125 118.90625 152.085938 120.929688 154.65625 120.929688 C 157.210938 120.929688 158.980469 118.90625 158.980469 116.464844 C 158.980469 113.878906 157.246094 112.007812 154.65625 112.007812 C 152.050781 112.007812 150.3125 113.878906 150.3125 116.464844 Z M 151.984375 116.464844 C 151.984375 114.847656 152.96875 113.277344 154.65625 113.277344 C 156.324219 113.277344 157.3125 114.847656 157.3125 116.464844 C 157.3125 117.984375 156.492188 119.65625 154.65625 119.65625 C 152.800781 119.65625 151.984375 117.984375 151.984375 116.464844 Z M 143.484375 118.804688 C 143.097656 119.121094 141.898438 119.65625 140.863281 119.65625 C 139.375 119.65625 138.054688 118.503906 138.054688 116.816406 L 144.136719 116.816406 C 144.136719 114.078125 143.214844 112.007812 140.378906 112.007812 C 137.972656 112.007812 136.386719 113.792969 136.386719 116.316406 C 136.386719 119.089844 137.773438 120.929688 140.796875 120.929688 C 142.199219 120.929688 142.882812 120.589844 143.484375 120.375 Z M 138.054688 115.648438 C 138.171875 114.546875 138.808594 113.277344 140.34375 113.277344 C 141.695312 113.277344 142.464844 114.34375 142.464844 115.648438 Z M 134.984375 112.207031 L 132.730469 112.207031 L 132.730469 109.738281 L 131.160156 110.238281 L 131.160156 112.207031 L 129.238281 112.207031 L 129.238281 113.476562 L 131.160156 113.476562 L 131.160156 118.453125 C 131.160156 120.15625 132.160156 120.929688 133.78125 120.929688 C 134.28125 120.929688 134.765625 120.792969 135.117188 120.691406 L 135.117188 119.355469 C 134.882812 119.503906 134.53125 119.65625 134.046875 119.65625 C 133.332031 119.65625 132.730469 119.121094 132.730469 118.136719 L 132.730469 113.476562 L 134.984375 113.476562 Z M 127.785156 112.207031 L 126.214844 112.207031 L 126.214844 116.148438 C 126.214844 118.21875 125.414062 119.65625 123.628906 119.65625 C 122.257812 119.574219 121.824219 118.605469 121.824219 116.617188 L 121.824219 112.207031 L 120.253906 112.207031 L 120.253906 117.269531 C 120.253906 119.554688 121.238281 120.929688 123.445312 120.929688 C 124.628906 120.929688 125.765625 120.339844 126.234375 119.371094 L 126.265625 119.371094 L 126.265625 120.722656 L 127.785156 120.722656 Z M 118.285156 112.207031 L 116.027344 112.207031 L 116.027344 109.738281 L 114.460938 110.238281 L 114.460938 112.207031 L 112.539062 112.207031 L 112.539062 113.476562 L 114.460938 113.476562 L 114.460938 118.453125 C 114.460938 120.15625 115.460938 120.929688 117.082031 120.929688 C 117.582031 120.929688 118.066406 120.792969 118.417969 120.691406 L 118.417969 119.355469 C 118.183594 119.503906 117.832031 119.65625 117.347656 119.65625 C 116.628906 119.65625 116.027344 119.121094 116.027344 118.136719 L 116.027344 113.476562 L 118.285156 113.476562 Z M 109.316406 120.722656 L 110.886719 120.722656 L 110.886719 112.207031 L 109.316406 112.207031 Z M 110.984375 108.535156 L 109.214844 108.535156 L 109.214844 110.304688 L 110.984375 110.304688 Z M 107.144531 112.207031 L 104.890625 112.207031 L 104.890625 109.738281 L 103.320312 110.238281 L 103.320312 112.207031 L 101.398438 112.207031 L 101.398438 113.476562 L 103.320312 113.476562 L 103.320312 118.453125 C 103.320312 120.15625 104.320312 120.929688 105.941406 120.929688 C 106.441406 120.929688 106.925781 120.792969 107.277344 120.691406 L 107.277344 119.355469 C 107.042969 119.503906 106.695312 119.65625 106.210938 119.65625 C 105.492188 119.65625 104.890625 119.121094 104.890625 118.136719 L 104.890625 113.476562 L 107.144531 113.476562 Z M 95.40625 120.457031 C 96.121094 120.84375 96.941406 120.929688 97.742188 120.929688 C 99.261719 120.929688 100.714844 120.089844 100.714844 118.269531 C 100.714844 115.546875 97.023438 116.046875 97.023438 114.3125 C 97.023438 113.609375 97.726562 113.277344 98.527344 113.277344 C 98.894531 113.277344 99.828125 113.492188 100.179688 113.710938 L 100.3125 112.339844 C 99.695312 112.15625 99.09375 112.007812 98.359375 112.007812 C 96.671875 112.007812 95.355469 112.859375 95.355469 114.628906 C 95.355469 117.015625 99.046875 116.882812 99.046875 118.4375 C 99.046875 119.355469 98.160156 119.65625 97.441406 119.65625 C 96.992188 119.65625 96.105469 119.457031 95.488281 119.054688 Z M 85.917969 120.722656 L 87.488281 120.722656 L 87.488281 116.785156 C 87.488281 114.714844 88.289062 113.277344 90.078125 113.277344 C 91.445312 113.359375 91.878906 114.328125 91.878906 116.316406 L 91.878906 120.722656 L 93.449219 120.722656 L 93.449219 115.664062 C 93.449219 113.378906 92.464844 112.007812 90.261719 112.007812 C 89.074219 112.007812 87.941406 112.59375 87.472656 113.558594 L 87.4375 113.558594 L 87.4375 112.207031 L 85.917969 112.207031 Z M 81.425781 120.722656 L 83.097656 120.722656 L 83.097656 109.066406 L 81.425781 109.066406 Z M 73.878906 118.804688 C 73.492188 119.121094 72.292969 119.65625 71.257812 119.65625 C 69.769531 119.65625 68.449219 118.503906 68.449219 116.816406 L 74.53125 116.816406 C 74.53125 114.078125 73.609375 112.007812 70.773438 112.007812 C 68.367188 112.007812 66.78125 113.792969 66.78125 116.316406 C 66.78125 119.089844 68.167969 120.929688 71.191406 120.929688 C 72.59375 120.929688 73.277344 120.589844 73.878906 120.375 Z M 68.449219 115.648438 C 68.566406 114.546875 69.203125 113.277344 70.738281 113.277344 C 72.089844 113.277344 72.859375 114.34375 72.859375 115.648438 Z M 57.144531 120.722656 L 58.714844 120.722656 L 58.714844 116.785156 C 58.714844 114.714844 59.515625 113.277344 61.304688 113.277344 C 62.671875 113.359375 63.105469 114.328125 63.105469 116.316406 L 63.105469 120.722656 L 64.675781 120.722656 L 64.675781 115.664062 C 64.675781 113.378906 63.691406 112.007812 61.488281 112.007812 C 60.300781 112.007812 59.316406 112.523438 58.75 113.425781 L 58.714844 113.425781 L 58.714844 108.199219 L 57.144531 108.199219 Z M 54.472656 112.207031 L 52.902344 112.207031 L 52.902344 116.148438 C 52.902344 118.21875 52.101562 119.65625 50.316406 119.65625 C 48.945312 119.574219 48.511719 118.605469 48.511719 116.617188 L 48.511719 112.207031 L 46.941406 112.207031 L 46.941406 117.269531 C 46.941406 119.554688 47.925781 120.929688 50.132812 120.929688 C 51.316406 120.929688 52.453125 120.339844 52.921875 119.371094 L 52.953125 119.371094 L 52.953125 120.722656 L 54.472656 120.722656 Z M 40.445312 120.722656 L 42.015625 120.722656 L 42.015625 116.851562 C 42.015625 114.714844 42.933594 113.378906 44.335938 113.378906 C 44.605469 113.378906 44.921875 113.410156 45.203125 113.527344 L 45.203125 112.125 C 44.871094 112.058594 44.636719 112.007812 44.167969 112.007812 C 43.269531 112.007812 42.367188 112.640625 41.949219 113.527344 L 41.914062 113.527344 L 41.914062 112.207031 L 40.445312 112.207031 Z M 33.230469 120.457031 C 33.949219 120.84375 34.765625 120.929688 35.570312 120.929688 C 37.089844 120.929688 38.542969 120.089844 38.542969 118.269531 C 38.542969 115.546875 34.851562 116.046875 34.851562 114.3125 C 34.851562 113.609375 35.550781 113.277344 36.355469 113.277344 C 36.722656 113.277344 37.65625 113.492188 38.007812 113.710938 L 38.140625 112.339844 C 37.523438 112.15625 36.921875 112.007812 36.1875 112.007812 C 34.5 112.007812 33.179688 112.859375 33.179688 114.628906 C 33.179688 117.015625 36.871094 116.882812 36.871094 118.4375 C 36.871094 119.355469 35.988281 119.65625 35.269531 119.65625 C 34.816406 119.65625 33.933594 119.457031 33.316406 119.054688 Z M 29.507812 120.722656 L 31.078125 120.722656 L 31.078125 108.199219 L 29.507812 108.199219 Z M 22.808594 120.722656 L 24.378906 120.722656 L 24.378906 116.851562 C 24.378906 114.714844 25.296875 113.378906 26.699219 113.378906 C 26.96875 113.378906 27.285156 113.410156 27.570312 113.527344 L 27.570312 112.125 C 27.234375 112.058594 27 112.007812 26.535156 112.007812 C 25.632812 112.007812 24.730469 112.640625 24.3125 113.527344 L 24.28125 113.527344 L 24.28125 112.207031 L 22.808594 112.207031 Z M 14.007812 114.144531 C 14.644531 113.609375 15.59375 113.277344 16.480469 113.277344 C 18.050781 113.277344 18.585938 114.027344 18.585938 115.496094 C 17.96875 115.464844 17.53125 115.464844 16.914062 115.464844 C 15.296875 115.464844 12.957031 116.132812 12.957031 118.269531 C 12.957031 120.125 14.242188 120.929688 16.082031 120.929688 C 17.515625 120.929688 18.351562 120.140625 18.71875 119.621094 L 18.75 119.621094 L 18.75 120.726562 L 20.222656 120.726562 C 20.1875 120.472656 20.15625 120.023438 20.15625 119.054688 L 20.15625 115.53125 C 20.15625 113.210938 19.167969 112.007812 16.730469 112.007812 C 15.644531 112.007812 14.710938 112.339844 13.925781 112.808594 Z M 18.585938 117.417969 C 18.585938 118.6875 17.765625 119.65625 16.214844 119.65625 C 15.496094 119.65625 14.628906 119.171875 14.628906 118.269531 C 14.628906 116.765625 16.730469 116.632812 17.582031 116.632812 C 17.917969 116.632812 18.25 116.667969 18.585938 116.667969 Z M 2.621094 120.722656 L 4.289062 120.722656 L 4.289062 115.011719 L 9.484375 120.722656 L 11.921875 120.722656 L 6.011719 114.578125 L 11.488281 109.066406 L 9.265625 109.066406 L 4.289062 114.195312 L 4.289062 109.066406 L 2.621094 109.066406 Z M 5.5625 75.695312 C 3.683594 82.832031 2.742188 90.347656 2.648438 98.050781 L 95.167969 98.050781 Z M 95.167969 98.050781 Z M 95.167969 98.050781 Z M 95.167969 98.050781 L 95.261719 6.660156 C 94.980469 6.660156 94.792969 6.660156 94.507812 6.660156 C 87.089844 6.660156 79.855469 7.597656 72.90625 9.289062 Z M 95.167969 98.050781 L 56.1875 15.113281 C 49.238281 18.304688 42.851562 22.25 37.027344 26.945312 Z M 23.6875 40.097656 C 18.898438 45.921875 14.765625 52.308594 11.570312 59.164062 L 95.167969 98.050781 Z M 95.167969 98.050781 Z M 95.167969 98.050781 Z M 257.941406 6.660156 L 197.546875 6.660156 L 197.546875 27.230469 L 215.203125 27.230469 L 215.203125 98.144531 L 240.28125 98.144531 L 240.28125 27.230469 L 257.941406 27.230469 Z M 191.535156 98.050781 L 166.457031 98.050781 L 166.457031 6.660156 L 191.535156 6.660156 Z M 162.230469 98.050781 L 134.335938 98.050781 L 101.179688 62.453125 L 101.179688 42.070312 L 133.300781 6.566406 L 162.042969 6.566406 L 125.035156 52.589844 Z M 162.230469 98.050781 "/>
</g>
</svg>
