<svg xmlns="http://www.w3.org/2000/svg" width="36" height="28"><defs><linearGradient id="a" x1="50%" x2="50%" y1="100%" y2="0%"><stop offset="0%" stop-color="#BFDBFE" stop-opacity="0"/><stop offset="100%" stop-color="#3B82F6"/></linearGradient><linearGradient id="b" x1="50%" x2="50%" y1="0%" y2="100%"><stop offset="0%" stop-color="#BFDBFE" stop-opacity="0"/><stop offset="100%" stop-color="#3B82F6"/></linearGradient></defs><g fill="none" fill-rule="nonzero"><path fill="url(#a)" d="M9 28c4.95 0 9-4.725 9-10.5v-7C18 4.725 13.95 0 9 0S0 4.725 0 10.5v7C0 23.275 4.05 28 9 28Z"/><path fill="url(#b)" d="M27 28c4.95 0 9-4.725 9-10.5v-7C36 4.725 31.95 0 27 0s-9 4.725-9 10.5v7c0 5.775 4.05 10.5 9 10.5Z"/></g></svg>